<svg width="466" height="302" viewBox="0 0 466 302" fill="none" xmlns="http://www.w3.org/2000/svg">
<path d="M10.2374 26.8653H17.931V43.1681C17.931 43.1681 9.99153 45.078 3.84481 38.6789C-1.61039 32.9985 -1.02133 20.2201 4.10093 15.79C7.50723 12.8464 15.3699 12.8366 17.931 14.8055V19.974H17.9208C17.9208 19.974 10.2374 18.4973 10.2374 26.8653Z" fill="#EA6F18"/>
<path d="M32.3072 26.8655H40V43.1692C40 43.1692 32.0614 45.0791 25.9154 38.6797C20.4608 32.999 21.0497 20.2199 26.1714 15.7896C29.5774 12.8459 37.4392 12.836 40 14.8051V19.9738H39.9898C39.9898 19.9738 32.3072 18.497 32.3072 26.8655Z" fill="#EA6F18"/>
<path d="M450.763 253.571L443.069 253.571L443.069 237.268C443.069 237.268 451.008 235.358 457.155 241.757C462.61 247.437 462.021 260.216 456.899 264.646C453.493 267.59 445.63 267.599 443.069 265.631L443.069 260.462L443.079 260.462C443.079 260.462 450.763 261.939 450.763 253.571Z" fill="#EA6F18"/>
<path d="M428.693 253.571L421 253.571L421 237.267C421 237.267 428.939 235.357 435.085 241.756C440.539 247.437 439.95 260.216 434.829 264.646C431.423 267.59 423.561 267.6 421 265.631L421 260.462L421.01 260.462C421.01 260.462 428.693 261.939 428.693 253.571Z" fill="#EA6F18"/>
<path d="M83.9453 1H460.62V193.949" stroke="#EA6F18" stroke-width="2"/>
<path d="M376.674 282.705L-0.000620484 282.705L-0.00061578 89.7562" stroke="#EA6F18" stroke-width="2"/>
</svg>
