<svg width="42" height="42" viewBox="0 0 42 42" fill="none" xmlns="http://www.w3.org/2000/svg">
<path d="M21 0C9.42025 0 0 9.42025 0 21C0 32.5798 9.42025 42 21 42C32.5798 42 42 32.5798 42 21H37.275C37.275 29.974 29.974 37.275 21 37.275C12.026 37.275 4.725 29.974 4.725 21C4.725 12.026 12.026 4.725 21 4.725V0ZM33.95 4.52025L20.8162 20.9195L14.679 15.89L11.1755 20.153L19.4722 26.957C19.7541 27.1895 20.0794 27.3636 20.4293 27.469C20.7791 27.5745 21.1464 27.6093 21.5098 27.5713C21.8732 27.5334 22.2254 27.4235 22.5459 27.248C22.8664 27.0725 23.1488 26.835 23.3765 26.5492L38.2585 7.9695L33.95 4.52025Z" fill="#EA6F18"/>
</svg>
