<svg width="15" height="16" viewBox="0 0 15 16" fill="none" xmlns="http://www.w3.org/2000/svg">
<path d="M7.5 14.5625C6.20206 14.5625 4.93327 14.1776 3.85407 13.4565C2.77488 12.7354 1.93374 11.7105 1.43704 10.5114C0.940343 9.31222 0.810384 7.99272 1.0636 6.71972C1.31682 5.44672 1.94183 4.2774 2.85961 3.35961C3.7774 2.44183 4.94672 1.81682 6.21972 1.5636C7.49272 1.31038 8.81222 1.44034 10.0114 1.93704C11.2105 2.43374 12.2354 3.27488 12.9565 4.35407C13.6776 5.43327 14.0625 6.70206 14.0625 8C14.0625 9.74049 13.3711 11.4097 12.1404 12.6404C10.9097 13.8711 9.24049 14.5625 7.5 14.5625ZM7.5 2.375C6.38748 2.375 5.29995 2.7049 4.37492 3.32299C3.44989 3.94107 2.72892 4.81957 2.30318 5.84741C1.87744 6.87524 1.76604 8.00624 1.98309 9.09739C2.20013 10.1885 2.73586 11.1908 3.52253 11.9775C4.3092 12.7641 5.31148 13.2999 6.40262 13.5169C7.49376 13.734 8.62476 13.6226 9.6526 13.1968C10.6804 12.7711 11.5589 12.0501 12.177 11.1251C12.7951 10.2001 13.125 9.11252 13.125 8C13.125 6.50816 12.5324 5.07742 11.4775 4.02253C10.4226 2.96764 8.99185 2.375 7.5 2.375Z" fill="#444444" fill-opacity="0.5"/>
<path d="M9.65156 10.8125L7.03125 8.19219V3.78125H7.96875V7.80312L10.3125 10.1516L9.65156 10.8125Z" fill="#444444" fill-opacity="0.5"/>
</svg>
