<svg width="11" height="11" viewBox="0 0 11 11" fill="none" xmlns="http://www.w3.org/2000/svg">
<path d="M5.70336 0.547852C2.90108 0.547852 0.629395 2.765 0.629395 5.50001C0.629395 8.23503 2.90108 10.4522 5.70336 10.4522C8.50565 10.4522 10.7775 8.23468 10.7775 5.49914C10.7775 2.76361 8.50583 0.547852 5.70336 0.547852ZM8.67781 4.26054C8.64352 4.26367 8.60977 4.2696 8.57601 4.2696C8.19252 4.2703 7.80908 4.2703 7.4257 4.2696C7.28979 4.2696 7.28926 4.2696 7.26497 4.13451C7.19353 3.72246 7.08638 3.31929 6.90779 2.93582C6.83635 2.78139 6.74813 2.63393 6.66776 2.48403C7.33784 2.55322 8.57851 3.64332 8.67781 4.26054ZM6.92868 6.19166C6.91975 6.30129 6.90832 6.31262 6.79295 6.31262C6.43005 6.31262 6.06721 6.31262 5.70444 6.31262H4.61592C4.49948 6.31262 4.48805 6.30147 4.47894 6.1927C4.44044 5.72952 4.44044 5.26406 4.47894 4.80088C4.48751 4.6963 4.50037 4.68427 4.61003 4.68427C5.33868 4.68427 6.06739 4.68427 6.79617 4.68427C6.90886 4.68427 6.9194 4.69595 6.92886 4.80855C6.96705 5.26901 6.96699 5.73121 6.92868 6.19166ZM5.3844 2.43383C5.5896 2.29438 5.82088 2.29438 6.02536 2.43383C6.23735 2.5785 6.36915 2.7854 6.47935 3.00572C6.66633 3.3789 6.77206 3.77719 6.8476 4.18419C6.86296 4.26733 6.81563 4.27012 6.7567 4.27012H5.70301C5.35773 4.27012 5.01275 4.27012 4.66807 4.27012C4.55305 4.27012 4.54627 4.26315 4.56627 4.1577C4.65396 3.6991 4.77647 3.25131 5.01775 2.84379C5.11312 2.68448 5.22742 2.54067 5.3844 2.43383ZM4.7395 2.48106C4.7395 2.48925 4.74272 2.49849 4.7395 2.50442C4.40911 2.99805 4.25159 3.55216 4.14497 4.12388C4.11765 4.2703 4.1189 4.27065 3.96495 4.27065C3.58396 4.27065 3.20332 4.27065 2.82304 4.27065C2.79411 4.27065 2.76535 4.26646 2.7291 4.2635C2.86572 3.60986 3.99317 2.61632 4.7395 2.48106ZM2.54515 6.23018C2.42799 5.75076 2.42799 5.25118 2.54515 4.77177C2.55979 4.71076 2.58908 4.68462 2.65498 4.68462C3.08944 4.68636 3.52401 4.68636 3.9587 4.68462C4.0371 4.68462 4.05978 4.71303 4.058 4.7892C4.04889 5.1901 4.04443 5.58978 4.04014 5.99016C4.04119 6.06564 4.04661 6.141 4.05639 6.21588C4.06443 6.2877 4.03585 6.31576 3.96156 6.31489C3.74439 6.31227 3.52705 6.31402 3.30988 6.31402C3.09271 6.31402 2.87536 6.31262 2.6582 6.31489C2.59372 6.31454 2.56033 6.29293 2.54515 6.23018ZM2.7307 6.73758C2.76535 6.73426 2.79928 6.72816 2.83322 6.72816C3.21993 6.72747 3.60688 6.72747 3.99406 6.72816C4.11747 6.72816 4.12033 6.73148 4.14158 6.85105C4.23088 7.3513 4.36589 7.83709 4.61395 8.28714C4.65592 8.36314 4.70325 8.43582 4.7504 8.51287C4.11372 8.48045 2.84072 7.36437 2.7307 6.73758ZM6.03358 8.55836C5.82177 8.70512 5.58907 8.70652 5.37797 8.55993C5.17295 8.4177 5.04257 8.2169 4.93417 8.00215C4.74522 7.62653 4.63806 7.22598 4.56198 6.81601C4.54716 6.73653 4.58734 6.72764 4.65021 6.72782C5.0012 6.72874 5.35243 6.72874 5.7039 6.72782C6.0518 6.72782 6.39975 6.72782 6.74777 6.72782C6.85492 6.72782 6.86189 6.73601 6.84278 6.83798C6.75813 7.28803 6.6374 7.72693 6.40523 8.12922C6.30861 8.29481 6.19485 8.44646 6.03358 8.55836ZM8.66459 6.81044C8.25324 7.6536 7.59417 8.22329 6.6874 8.51949C6.67626 8.51977 6.66512 8.51884 6.65419 8.5167C6.83819 8.25192 6.97803 7.96035 7.06852 7.65285C7.14871 7.3771 7.21139 7.09647 7.27515 6.81619C7.29087 6.74647 7.31926 6.72607 7.38713 6.72642C7.79122 6.72816 8.19543 6.72816 8.59976 6.72642C8.66084 6.72712 8.70174 6.73426 8.66459 6.81044ZM8.86908 6.20612C8.85122 6.28526 8.81658 6.31733 8.73085 6.31524C8.51976 6.31018 8.3083 6.31367 8.09703 6.31349C7.88576 6.31332 7.6743 6.31088 7.46303 6.31489C7.37927 6.31646 7.34337 6.29327 7.35177 6.20525C7.39591 5.73646 7.39656 5.26473 7.35373 4.79582C7.3448 4.69403 7.35552 4.68549 7.46089 4.68549C7.88647 4.68549 8.31205 4.68706 8.73764 4.68357C8.82033 4.68357 8.85319 4.71495 8.8698 4.7892C8.97693 5.25563 8.97668 5.7398 8.86908 6.20612Z" fill="white"/>
</svg>
