<svg width="22" height="23" viewBox="0 0 22 23" fill="none" xmlns="http://www.w3.org/2000/svg">
<path d="M11 0.607422C4.92479 0.607422 0 5.53221 0 11.6074C0 17.6826 4.92479 22.6074 11 22.6074C17.0752 22.6074 22 17.6826 22 11.6074C22 5.53221 17.0752 0.607422 11 0.607422ZM8.30729 16.1667H6.07979V8.99836H8.30729V16.1667ZM7.17979 8.11836C6.47625 8.11836 6.02135 7.61992 6.02135 7.00346C6.02135 6.3744 6.49 5.89086 7.20844 5.89086C7.92688 5.89086 8.36687 6.3744 8.38062 7.00346C8.38062 7.61992 7.92687 8.11836 7.17979 8.11836ZM16.4427 16.1667H14.2152V12.1941C14.2152 11.2694 13.8921 10.6415 13.0866 10.6415C12.4713 10.6415 12.1057 11.0666 11.9442 11.4757C11.8846 11.6212 11.8697 11.8274 11.8697 12.0325V16.1655H9.64104V11.2843C9.64104 10.3894 9.6124 9.64117 9.5826 8.99721H11.5179L11.6199 9.99294H11.6646C11.9579 9.52544 12.6764 8.83565 13.8783 8.83565C15.3439 8.83565 16.4427 9.81763 16.4427 11.9283V16.1667Z" fill="#444444"/>
</svg>
