<svg width="11" height="11" viewBox="0 0 11 11" fill="none" xmlns="http://www.w3.org/2000/svg">
<path d="M7.03361 4.17901C7.03933 4.43913 6.96619 4.6951 6.82337 4.91479C6.68055 5.13448 6.47442 5.30811 6.23085 5.41386C5.98728 5.51961 5.71713 5.55278 5.45432 5.50921C5.1915 5.46564 4.94772 5.34726 4.7536 5.16894C4.55947 4.99062 4.42363 4.7603 4.36316 4.50691C4.30268 4.25351 4.32025 3.98833 4.41366 3.74464C4.50707 3.50096 4.67216 3.28964 4.88819 3.1372C5.10423 2.98477 5.3616 2.89801 5.62798 2.88783C5.80753 2.88097 5.98669 2.90909 6.15499 2.97054C6.32329 3.03199 6.47736 3.12554 6.60821 3.24574C6.73907 3.36594 6.84408 3.51037 6.91711 3.6706C6.99015 3.83084 7.02976 4.00367 7.03361 4.17901Z" fill="white"/>
<path d="M5.6957 0.547857C4.69336 0.547858 3.71355 0.838031 2.88024 1.38168C2.04693 1.92532 1.39756 2.698 1.01433 3.60194C0.63109 4.50587 0.531202 5.50043 0.727296 6.45979C0.923391 7.41915 1.40667 8.30018 2.11596 8.99141C2.82524 9.68263 3.72867 10.153 4.71194 10.3429C5.6952 10.5329 6.7141 10.4339 7.63971 10.0586C8.56533 9.68319 9.35606 9.04829 9.91185 8.23419C10.4676 7.42009 10.7635 6.46338 10.762 5.48512C10.762 4.83613 10.6309 4.19351 10.3762 3.59401C10.1215 2.99452 9.74822 2.44991 9.27767 1.99134C8.80712 1.53278 8.24856 1.16926 7.63393 0.921574C7.01931 0.673885 6.36067 0.546893 5.6957 0.547857ZM8.09356 4.60478C8.08156 4.90948 8.01542 5.20983 7.89812 5.49245C7.64229 6.09928 7.29522 6.6655 6.86832 7.17245C6.54964 7.56056 6.20831 7.93042 5.84604 8.28021C5.79917 8.32093 5.74889 8.35774 5.6957 8.39025C5.63237 8.34787 5.57209 8.30131 5.5153 8.25087C5.01634 7.77142 4.56345 7.24836 4.16229 6.68825C3.83841 6.25962 3.58481 5.78442 3.41061 5.2797C3.33355 5.04232 3.29301 4.79509 3.29034 4.54608C3.28489 4.21249 3.34867 3.88128 3.47786 3.57238C3.60704 3.26349 3.79894 2.98331 4.04202 2.74872C4.38456 2.42343 4.82414 2.21277 5.29732 2.14714C5.83811 2.05791 6.39394 2.14833 6.87584 2.40391C7.41077 2.69215 7.80777 3.1745 7.98081 3.74644C8.06843 4.02443 8.11152 4.31395 8.10858 4.60478" fill="white"/>
</svg>
