<svg width="11" height="11" viewBox="0 0 11 11" fill="none" xmlns="http://www.w3.org/2000/svg">
<path d="M0.629417 5.2132C0.6309 4.22398 0.925789 3.25744 1.47676 2.43586C2.02772 1.61427 2.81001 0.97458 3.72464 0.597732C4.63927 0.220884 5.64513 0.123814 6.61494 0.318797C7.58475 0.513781 8.47494 0.99206 9.17286 1.69311C9.87077 2.39417 10.345 3.28649 10.5357 4.25717C10.7263 5.22785 10.6247 6.23327 10.2438 7.1462C9.86283 8.05913 9.21962 8.83854 8.39557 9.38582C7.57153 9.93309 6.60367 10.2236 5.61445 10.2207C4.9582 10.2197 4.30858 10.0893 3.70274 9.83707C3.09691 9.5848 2.54676 9.21556 2.08375 8.75048C1.62075 8.28539 1.25399 7.73359 1.00444 7.12663C0.754893 6.51967 0.627451 5.86946 0.629417 5.2132ZM8.52177 3.29243H2.74451L2.79683 3.33727L5.46498 5.53458C5.48663 5.55743 5.5127 5.57561 5.54162 5.58805C5.57053 5.60048 5.60167 5.6069 5.63315 5.6069C5.66462 5.6069 5.69575 5.60048 5.72466 5.58805C5.75358 5.57561 5.77965 5.55743 5.8013 5.53458L8.46945 3.33727L8.52177 3.29243ZM6.36932 5.38511L5.95079 5.7289C5.86598 5.80007 5.7588 5.83909 5.64809 5.83909C5.53737 5.83909 5.4302 5.80007 5.3454 5.7289L4.94928 5.40753C4.94439 5.40131 4.93815 5.39629 4.93103 5.39283C4.92391 5.38937 4.9161 5.38757 4.90818 5.38757C4.90027 5.38757 4.89245 5.38937 4.88533 5.39283C4.87821 5.39629 4.87197 5.40131 4.86707 5.40753L3.92537 6.13996L2.75198 7.09661C2.75198 7.09661 2.75199 7.09661 2.71462 7.14145H2.77441H8.42461H8.49935C8.49935 7.14145 8.49934 7.08914 8.44703 7.07419L7.10175 5.99796C6.85511 5.78869 6.601 5.5869 6.35437 5.38511M2.72209 6.8126L4.69518 5.22068L2.72209 3.59138V6.8126ZM6.53374 5.22815L8.50683 6.8126V3.60633C7.84166 4.14445 7.19144 4.68256 6.53374 5.22815Z" fill="white"/>
</svg>
