<svg width="11" height="11" viewBox="0 0 11 11" fill="none" xmlns="http://www.w3.org/2000/svg">
<path d="M10.7775 5.5482C10.779 6.53896 10.4827 7.50789 9.92603 8.33239C9.36939 9.15689 8.57746 9.7999 7.65043 10.1801C6.7234 10.5602 5.70294 10.6605 4.71817 10.4681C3.7334 10.2757 2.82859 9.79934 2.11822 9.09928C1.40784 8.39923 0.923841 7.50695 0.727446 6.53534C0.531051 5.56372 0.631093 4.55644 1.01491 3.64095C1.39874 2.72547 2.04908 1.94293 2.88367 1.39234C3.71826 0.841745 4.69957 0.547853 5.70344 0.547852C7.04665 0.551761 8.33383 1.0796 9.28433 2.01629C10.2348 2.95298 10.7716 4.22255 10.7775 5.5482ZM7.57046 9.26316C7.57143 9.24584 7.57143 9.22848 7.57046 9.21116C7.19405 8.57961 6.81763 7.94064 6.44875 7.30166C6.43689 7.29262 6.42233 7.28773 6.40735 7.28773C6.39236 7.28773 6.3778 7.29262 6.36594 7.30166C6.28844 7.30815 6.21043 7.29897 6.13665 7.2747C6.06287 7.25043 5.99488 7.21157 5.93683 7.16049C5.80477 7.04471 5.69509 6.90626 5.61311 6.75184C5.34209 6.29119 5.06354 5.83053 4.80005 5.36245C4.70868 5.2082 4.63062 5.04666 4.56668 4.87951C4.53144 4.79484 4.51848 4.70275 4.52901 4.61181C4.53954 4.52087 4.57322 4.43405 4.6269 4.35941C4.64115 4.33856 4.64875 4.31398 4.64875 4.28883C4.64875 4.26368 4.64115 4.2391 4.6269 4.21824C4.28813 3.65357 3.95689 3.08146 3.62564 2.51678C3.5845 2.43776 3.53928 2.36089 3.49014 2.28645L3.3471 2.43505C3.08687 2.75236 2.9459 3.14876 2.9481 3.55698C2.92652 4.33324 3.11077 5.10159 3.4826 5.78596C3.77621 6.3432 4.09992 6.87816 4.42364 7.41312C4.78104 8.0012 5.26088 8.5077 5.83142 8.8991C6.17823 9.15754 6.58906 9.3192 7.02089 9.36718C7.21222 9.37923 7.40407 9.35399 7.58551 9.29289M4.89792 4.09193L5.36467 3.82446C5.40356 3.80431 5.43788 3.77655 5.46555 3.7429C5.49323 3.70924 5.51368 3.67038 5.52566 3.62867C5.53763 3.58697 5.54087 3.5433 5.5352 3.50031C5.52953 3.45733 5.51505 3.41594 5.49265 3.37866L4.65701 1.95953C4.62002 1.89142 4.55875 1.83927 4.48504 1.81319C4.41133 1.78712 4.33043 1.78896 4.25802 1.81836C4.07734 1.90752 3.91171 2.01154 3.73856 2.10813C4.1225 2.7694 4.4914 3.43067 4.89792 4.09193ZM7.85653 9.15172H7.89419L8.33082 8.90653C8.3687 8.88438 8.40173 8.855 8.42798 8.82011C8.45422 8.78521 8.47315 8.74551 8.48367 8.70331C8.49418 8.66111 8.49608 8.61727 8.48923 8.57434C8.48237 8.53141 8.4669 8.49026 8.44374 8.4533C8.17272 7.97779 7.9017 7.50971 7.62316 7.04162C7.58617 6.97351 7.52489 6.92136 7.45118 6.89528C7.37747 6.8692 7.29657 6.87104 7.22416 6.90045C7.04348 6.98218 6.87786 7.08619 6.69718 7.18278L7.85653 9.16657" fill="white"/>
</svg>
