<svg width="22" height="23" viewBox="0 0 22 23" fill="none" xmlns="http://www.w3.org/2000/svg">
<path d="M11 0.607422C17.0814 0.607422 22 5.52599 22 11.6074C22 17.6889 17.0814 22.6074 11 22.6074C4.91857 22.6074 0 17.6889 0 11.6074C0 5.52599 4.91857 0.607422 11 0.607422ZM8.98857 17.406C13.86 17.406 16.5314 13.3674 16.5314 9.86314V9.51742C17.05 9.14028 17.5057 8.66885 17.8514 8.13456C17.38 8.33885 16.8614 8.48028 16.3271 8.55885C16.8771 8.22885 17.3014 7.71028 17.49 7.09742C16.9714 7.39599 16.4057 7.61599 15.8086 7.74171C15.3214 7.22314 14.63 6.90885 13.8757 6.90885C12.4143 6.90885 11.22 8.10314 11.22 9.56456C11.22 9.76885 11.2357 9.97314 11.2986 10.1617C9.09857 10.0517 7.13429 8.99885 5.83 7.39599C5.61 7.78885 5.46857 8.24456 5.46857 8.73171C5.46857 9.64314 5.94 10.4603 6.64714 10.9317C6.20714 10.9317 5.79857 10.806 5.45286 10.6017V10.6331C5.45286 11.9217 6.36429 12.9903 7.57429 13.2417C7.35429 13.3046 7.11857 13.336 6.88286 13.336C6.71 13.336 6.55286 13.3203 6.38 13.2888C6.71 14.3417 7.7 15.1117 8.84714 15.1274C7.93571 15.8346 6.78857 16.2589 5.54714 16.2589C5.32714 16.2589 5.12286 16.2589 4.91857 16.2274C6.08143 16.9817 7.48 17.4217 8.97286 17.4217" fill="#444444"/>
</svg>
